<svg xmlns="http://www.w3.org/2000/svg"  viewBox="0 0 50 50" width="50px" height="50px"><path d="M48.707,24.293L45,20.586v-9.628C45,7.672,42.328,5,39.043,5h-9.629l-3.707-3.707c-0.391-0.391-1.023-0.391-1.414,0	L20.586,5h-9.629C7.672,5,5,7.672,5,10.958v9.628l-3.707,3.707c-0.391,0.391-0.391,1.023,0,1.414L5,29.414v9.629	C5,42.328,7.672,45,10.957,45h9.629l3.707,3.707C24.488,48.902,24.744,49,25,49s0.512-0.098,0.707-0.293L29.414,45h9.629	C42.328,45,45,42.328,45,39.043v-9.629l3.707-3.707C49.098,25.316,49.098,24.684,48.707,24.293z M33,21.686L29.686,25L33,28.314V33	h-4.686L25,29.686L21.686,33H17v-4.686L20.314,25L17,21.686V17h4.686L25,20.314L28.314,17H33V21.686z"/></svg>